<svg xmlns="http://www.w3.org/2000/svg" xmlns:xlink="http://www.w3.org/1999/xlink" viewBox="0 0 522.42 87.9"><defs><style>.cls-1{fill:none;}.cls-2{clip-path:url(#clip-path);}</style><clipPath id="clip-path" transform="translate(-49.13 -49.13)"><rect class="cls-1" width="620.66" height="186.15"/></clipPath></defs><title>w3w_HorizontalLogo_RGB_Black_ENG</title><g id="Layer_2" data-name="Layer 2"><g id="information"><g id="Horizontal_Black" data-name="Horizontal Black"><g class="cls-2"><g class="cls-2"><path d="M87.58,112.3a2.68,2.68,0,0,1-.87-.14A2.73,2.73,0,0,1,85,108.69l11-33a2.75,2.75,0,0,1,5.22,1.73l-11,33a2.74,2.74,0,0,1-2.61,1.87" transform="translate(-49.13 -49.13)"/><path d="M71.1,112.3a2.68,2.68,0,0,1-.87-.14,2.73,2.73,0,0,1-1.73-3.47l11-33a2.75,2.75,0,0,1,5.22,1.73l-11,33a2.75,2.75,0,0,1-2.61,1.87" transform="translate(-49.13 -49.13)"/><path d="M104.06,112.3a2.58,2.58,0,0,1-.86-.14,2.74,2.74,0,0,1-1.74-3.47l11-33a2.74,2.74,0,1,1,5.21,1.73l-11,33a2.74,2.74,0,0,1-2.61,1.87" transform="translate(-49.13 -49.13)"/><path d="M131.53,131.53H54.62V54.62h76.91Zm5.5-82.4H49.13V137H137Z" transform="translate(-49.13 -49.13)"/><path d="M491.43,73.84c-4.49,0-8.39,1.1-10.93,3.48v-.74a2.75,2.75,0,0,0-5.49,0v33a2.75,2.75,0,0,0,5.49,0V91.37c0-8.15,2.71-12,10.85-12a2.91,2.91,0,0,0,2.79-2.71,2.73,2.73,0,0,0-2.71-2.78" transform="translate(-49.13 -49.13)"/><path d="M190,112.3a2.76,2.76,0,0,1-2.58-1.8L178,84.72l-9.18,25.76a2.41,2.41,0,0,1-2.59,1.82,2.76,2.76,0,0,1-2.58-1.8l-12-33a2.75,2.75,0,1,1,5.16-1.89l9.42,25.81L175.26,76a2.75,2.75,0,0,1,4.36-1.58,2.82,2.82,0,0,1,1,1.41l9.35,25.63,9.19-25.77a2.75,2.75,0,0,1,5.18,1.84l-11.75,33A2.51,2.51,0,0,1,190,112.3" transform="translate(-49.13 -49.13)"/><path d="M229.94,73.84a16.09,16.09,0,0,0-10.61,3.49V60.1a2.75,2.75,0,0,0-5.49,0v49.46a2.75,2.75,0,0,0,5.49,0V89.11c0-1,.38-9.78,10.61-9.78,9.09,0,9.43,8.55,9.44,9.52v20.71a2.75,2.75,0,0,0,5.5,0V88.85c0-5.2-3.13-15-14.94-15" transform="translate(-49.13 -49.13)"/><path d="M318.6,106.81c-4.63,0-6.44-2-6.44-7.27V79.33h6.44a2.75,2.75,0,0,0,0-5.5h-6.44v-6a2.75,2.75,0,1,0-5.5,0v6h-4.29a2.75,2.75,0,0,0,0,5.5h4.29V99.54c0,11.1,7.49,12.76,11.94,12.76a2.75,2.75,0,1,0,0-5.49" transform="translate(-49.13 -49.13)"/><path d="M345.09,113.6a14.5,14.5,0,0,1-14.41-13.39,2.75,2.75,0,1,1,5.48-.4,9,9,0,1,0,8.93-9.61,2.75,2.75,0,1,1,0-5.49,7.38,7.38,0,1,0-7.35-7.92,2.75,2.75,0,0,1-5.48-.4,12.87,12.87,0,1,1,21,10.86,14.45,14.45,0,0,1-8.18,26.35" transform="translate(-49.13 -49.13)"/><path d="M406.32,112.3a2.76,2.76,0,0,1-2.58-1.8l-9.41-25.78-9.18,25.76a2.74,2.74,0,0,1-2.58,1.82h0a2.76,2.76,0,0,1-2.58-1.8l-12-33a2.75,2.75,0,1,1,5.16-1.89l9.42,25.81L391.61,76A2.75,2.75,0,0,1,396,74.42a2.82,2.82,0,0,1,1,1.41l9.35,25.63,9.19-25.77a2.75,2.75,0,1,1,5.18,1.84l-11.75,33a2.74,2.74,0,0,1-2.58,1.82Z" transform="translate(-49.13 -49.13)"/><path d="M446.26,112.3a19.23,19.23,0,1,1,19.23-19.22,19.25,19.25,0,0,1-19.23,19.22m0-33A13.74,13.74,0,1,0,460,93.08a13.75,13.75,0,0,0-13.73-13.74" transform="translate(-49.13 -49.13)"/><path d="M533.33,57.35a2.75,2.75,0,0,0-2.74,2.75V79.38a17.85,17.85,0,0,0-12.84-5.53c-10.1,0-18.32,8.62-18.32,19.23s8.22,19.22,18.32,19.22a17.85,17.85,0,0,0,12.84-5.53v2.79a2.75,2.75,0,0,0,5.49,0V60.1a2.75,2.75,0,0,0-2.75-2.75m-15.58,49.46c-7.07,0-12.83-6.16-12.83-13.73s5.76-13.74,12.83-13.74,12.84,6.16,12.84,13.74-5.76,13.73-12.84,13.73" transform="translate(-49.13 -49.13)"/><path d="M287.39,73.85a2.74,2.74,0,0,0-2.74,2.74v2.83a17.85,17.85,0,0,0-12.88-5.57c-10.1,0-18.32,8.62-18.32,19.23s8.22,19.22,18.32,19.22a17.85,17.85,0,0,0,12.88-5.57s.2-.51,0,2.83a2.75,2.75,0,0,0,5.49,0v-33a2.75,2.75,0,0,0-2.75-2.74m-15.62,33c-7.07,0-12.83-6.16-12.83-13.73s5.76-13.74,12.83-13.74S284.6,85.5,284.6,93.08s-5.75,13.73-12.83,13.73" transform="translate(-49.13 -49.13)"/><path d="M558.91,112.28c-5.72,0-10.44-2.47-12.95-6.76a3,3,0,0,1,.73-3.8,2.34,2.34,0,0,1,3.43.82,10.67,10.67,0,0,0,8.82,4.71c4.59,0,7.52-1.94,7.52-5s-3.38-4.39-8.5-6.75C552.2,92.83,546.61,91,546.5,84c-.07-4.66,4.71-9.68,12-10.12,4.48-.28,8.87,1.48,11.2,4a3,3,0,0,1,.16,3.88,2.32,2.32,0,0,1-3.5.18c-5.67-5.32-14.84-2.81-14.84,2.08,0,3,4.19,4.62,8.34,6.49s11.69,4.68,11.69,11.75c0,4.57-4,10.06-12.63,10.06" transform="translate(-49.13 -49.13)"/></g></g></g></g></g></svg>